<?xml version="1.0" encoding="utf-8"?>
<!-- Generator: Adobe Illustrator 21.1.0, SVG Export Plug-In . SVG Version: 6.00 Build 0)  -->
<svg version="1.1"
	 id="svg2" inkscape:version="0.48.3.1 r9886" sodipodi:docname="muscular_system_front.svg" xmlns:cc="http://creativecommons.org/ns#" xmlns:dc="http://purl.org/dc/elements/1.1/" xmlns:inkscape="http://www.inkscape.org/namespaces/inkscape" xmlns:rdf="http://www.w3.org/1999/02/22-rdf-syntax-ns#" xmlns:sodipodi="http://sodipodi.sourceforge.net/DTD/sodipodi-0.dtd" xmlns:svg="http://www.w3.org/2000/svg"
	 xmlns="http://www.w3.org/2000/svg" xmlns:xlink="http://www.w3.org/1999/xlink" x="0px" y="0px" viewBox="0 0 200 369"
	 style="enable-background:new 0 0 200 369;" xml:space="preserve">
<style type="text/css">
	.st0{opacity:0.5242;fill:#FC0000;enable-background:new    ;}
</style>
<sodipodi:namedview  bordercolor="#666666" borderopacity="1.0" fit-margin-bottom="0" fit-margin-left="0" fit-margin-right="0" fit-margin-top="0" height="524.41px" id="base" inkscape:current-layer="layer1" inkscape:cx="93.552734" inkscape:cy="165.08135" inkscape:document-units="px" inkscape:pageopacity="0" inkscape:pageshadow="2" inkscape:window-height="624" inkscape:window-maximized="0" inkscape:window-width="910" inkscape:window-x="493" inkscape:window-y="165" inkscape:zoom="0.98994949" pagecolor="#ffffff" showgrid="false">
	</sodipodi:namedview>
<g>
	<g id="layer1_1_" transform="translate(-395.71431,-323.50506)" inkscape:groupmode="layer" inkscape:label="Ebene 1">
		<path id="path2992_2_" inkscape:connector-curvature="0" sodipodi:nodetypes="caazccsc" class="st0" d="M530.9,391.9
			c-1.7,1.7,4.5,1.3,5.1,2.2c4.4,1.9,5.8,3.4,6.2,11.8c0.9,6.1-0.9,6.4,0.7,11.9c0.7,2.3,2.6,1.2,2.1-1.3c0-4.1,0.1-8.6-0.7-14
			c-0.9-5.6-2.9-8.1-5.8-10.8C536.6,390,532.4,388.8,530.9,391.9L530.9,391.9z"/>
	</g>
	<path id="path2992_1_" inkscape:connector-curvature="0" sodipodi:nodetypes="caazccsc" class="st0" d="M65.5,68.4
		c2,1.7-5.2,1.3-6,2.2c-5.2,1.9-6.8,3.4-7.3,11.8c-1.1,6.1,1,6.4-0.8,11.9c-0.8,2.3-3,1.2-2.4-1.3c0.1-4.1-0.1-8.6,0.8-14
		c1-5.6,3.4-8.1,6.8-10.8C58.7,66.5,63.7,65.3,65.5,68.4L65.5,68.4z"/>
</g>
</svg>
