<?xml version="1.0" encoding="utf-8"?>
<!-- Generator: Adobe Illustrator 21.1.0, SVG Export Plug-In . SVG Version: 6.00 Build 0)  -->
<svg version="1.1"
	 id="svg2" inkscape:version="0.48.3.1 r9886" sodipodi:docname="muscular_system_back.svg" xmlns:cc="http://creativecommons.org/ns#" xmlns:dc="http://purl.org/dc/elements/1.1/" xmlns:inkscape="http://www.inkscape.org/namespaces/inkscape" xmlns:rdf="http://www.w3.org/1999/02/22-rdf-syntax-ns#" xmlns:sodipodi="http://sodipodi.sourceforge.net/DTD/sodipodi-0.dtd" xmlns:svg="http://www.w3.org/2000/svg"
	 xmlns="http://www.w3.org/2000/svg" xmlns:xlink="http://www.w3.org/1999/xlink" x="0px" y="0px" viewBox="0 0 200 369"
	 style="enable-background:new 0 0 200 369;" xml:space="preserve">
<style type="text/css">
	.st0{opacity:0.5242;fill:#FC0000;enable-background:new    ;}
</style>
<sodipodi:namedview  bordercolor="#666666" borderopacity="1.0" fit-margin-bottom="0" fit-margin-left="0" fit-margin-right="0" fit-margin-top="0" id="base" inkscape:current-layer="layer1" inkscape:cx="570.65203" inkscape:cy="99.557377" inkscape:document-units="px" inkscape:pageopacity="0" inkscape:pageshadow="2" inkscape:window-height="577" inkscape:window-maximized="0" inkscape:window-width="844" inkscape:window-x="748" inkscape:window-y="66" inkscape:zoom="0.35" pagecolor="#ffffff" showgrid="false">
	</sodipodi:namedview>
<g id="layer1_1_" transform="translate(-395.71431,-323.50506)" inkscape:groupmode="layer" inkscape:label="Ebene 1">
	<path id="path2992" inkscape:connector-curvature="0" sodipodi:nodetypes="caazccac" class="st0" d="M523.8,392.6
		c-1.9,2.1,4.7,5.9,6.8,8.9c2.4,3.5,4.3,7.3,6.8,10.8c3.5,5,8.9,13.1,11.4,14.2s2.9,2,2.4-1c-0.1-4.9,0.5-12.5-0.4-19
		c-1-6.7-4.8-12-9.8-14.6C535.9,389.1,524.1,392.2,523.8,392.6L523.8,392.6z"/>
	<path id="path2992-1" inkscape:connector-curvature="0" sodipodi:nodetypes="caazccac" class="st0" d="M469,394
		c1.9,2.1-4.7,5.9-6.8,8.9c-2.4,3.5-4.3,7.3-6.8,10.8c-3.5,5-8.9,13.1-11.4,14.2c-2.5,1.1-2.9,2-2.4-1c0.1-4.9-0.5-12.5,0.4-19
		c1-6.7,4.8-12,9.8-14.6C457,390.6,468.8,393.6,469,394z"/>
</g>
</svg>
