<?xml version="1.0" encoding="utf-8"?>
<!-- Generator: Adobe Illustrator 21.1.0, SVG Export Plug-In . SVG Version: 6.00 Build 0)  -->
<svg version="1.1"
	 id="svg2" inkscape:version="0.48.3.1 r9886" sodipodi:docname="muscular_system_front.svg" xmlns:cc="http://creativecommons.org/ns#" xmlns:dc="http://purl.org/dc/elements/1.1/" xmlns:inkscape="http://www.inkscape.org/namespaces/inkscape" xmlns:rdf="http://www.w3.org/1999/02/22-rdf-syntax-ns#" xmlns:sodipodi="http://sodipodi.sourceforge.net/DTD/sodipodi-0.dtd" xmlns:svg="http://www.w3.org/2000/svg"
	 xmlns="http://www.w3.org/2000/svg" xmlns:xlink="http://www.w3.org/1999/xlink" x="0px" y="0px" viewBox="0 0 200 369"
	 style="enable-background:new 0 0 200 369;" xml:space="preserve">
<style type="text/css">
	.st0{opacity:0.5242;fill:#FC0000;enable-background:new    ;}
</style>
<sodipodi:namedview  bordercolor="#666666" borderopacity="1.0" fit-margin-bottom="0" fit-margin-left="0" fit-margin-right="0" fit-margin-top="0" height="524.41px" id="base" inkscape:current-layer="layer1" inkscape:cx="93.552734" inkscape:cy="165.08135" inkscape:document-units="px" inkscape:pageopacity="0" inkscape:pageshadow="2" inkscape:window-height="624" inkscape:window-maximized="0" inkscape:window-width="910" inkscape:window-x="493" inkscape:window-y="165" inkscape:zoom="0.98994949" pagecolor="#ffffff" showgrid="false">
	</sodipodi:namedview>
<g>
	<path id="path2992_1_" inkscape:connector-curvature="0" sodipodi:nodetypes="caazccsc" class="st0" d="M52.5,135.4
		c2,1.7,6.6,0.3,5.8,1.2c-1.3,5.2-5.4,15.9-9.5,21.2c-3.7,6.8-10.2,11.5-12,17c-0.8,2.3-9.1-0.1-8.5-2.6c-2-7.1,2.5-16.9,3.4-22.3
		c1-5.6,6-17.1,9.4-19.8c2.1-1.7,4.9,3.3,6.7,6.4L52.5,135.4z"/>
	<path id="path2992_3_" inkscape:connector-curvature="0" sodipodi:nodetypes="caazccsc" class="st0" d="M149.3,126.8
		c2.6-0.4,4.6-4.8,4.7-3.6c3.1,4.4,8.5,14.5,9.9,21c2.8,7.3,2.1,15.2,5,20.2c1.2,2.1-6,6.8-7.5,4.7c-6.7-3.2-11.1-13-14.6-17.2
		c-3.6-4.4-9-15.7-8.8-20.1c0.1-2.7,5.7-1.6,9.2-0.9L149.3,126.8z"/>
</g>
</svg>
